<svg viewBox="0 0 320 110" xmlns="http://www.w3.org/2000/svg" style="width: 100%; height: 100%;">
<rect x="0" y="0" width="320" height="110" fill="#54cce8" rx="10" ry="10" />
<g transform="matrix(1,0,0,1,0,0)" fill="#111111">
<rect x="15" y="15" width="100" height="80" rx="10"></rect></g>
<g transform="matrix(0.8,0,0,0.8,0,0)" fill="#54cce8">
<g transform="translate(30,-935)">
<path d="m 60.7828,964.36215 27.1809,0.8834 -27.1809,25.9958 z m -1.9745,1.4513 0,26.7845 -25.2681,0 c 8.6166,-8.7334 16.8796,-17.8103 25.2681,-26.7845 z m 27.7053,3.628 3.4864,1.1989 -12.5877,7.4768 z m -68.1835,2.9656 5.5226,0 12.8654,14.0705 -5.9854,6.1204 -12.4026,0 c 9e-4,-6.7347 0,-13.4597 0,-20.1909 z m -1.9746,1.2304 0,5.8364 -6.3555,0 z m 3.363,20.9796 38.627,0 -10.7675,29.43465 z m 39.0898,4.54286 0,41.20229 -12.5878,-6.8775 c 4.1972,-11.443 8.3886,-22.879 12.5878,-34.32479 z" fill="#54cce8">
</path></g></g>
<g transform="translate(0, 10) matrix(1.211305157464033,0,0,1.211305157464033,121.23149442389489,52.48317869181594)" fill="#111111">
<path d="M1.46 5.619999999999999 q0.84 -0.1 1.76 -0.17 t2.04 -0.07 q3.78 0 5.75 1.88 t1.97 5.65 t-2 5.55 t-5.94 1.78 q-1.02 0 -1.88 -0.07 t-1.7 -0.17 l0 -14.38 z M4.4 17.68 q0.18 0.02 0.46 0.04 t0.68 0.02 q0.92 0 1.71 -0.21 t1.37 -0.77 t0.92 -1.5 t0.34 -2.4 t-0.34 -2.42 t-0.92 -1.52 t-1.33 -0.79 t-1.59 -0.23 l-0.64 0 q-0.38 0.02 -0.66 0.06 l0 9.72 z M21.259999999999998 20.24 q-1.62 0 -2.8 -0.56 t-1.94 -1.55 t-1.13 -2.34 t-0.37 -2.95 t0.37 -2.97 t1.13 -2.37 t1.94 -1.56 t2.8 -0.56 t2.8 0.56 t1.94 1.56 t1.13 2.37 t0.37 2.97 t-0.37 2.95 t-1.13 2.34 t-1.94 1.55 t-2.8 0.56 z M21.259999999999998 17.8 q3.1 0 3.1 -4.96 q0 -2.48 -0.75 -3.72 t-2.33 -1.24 q-3.14 0 -3.14 4.96 t3.12 4.96 z M37.120000000000005 8.1 l-3.58 0 q-0.12 -0.6 -0.12 -1.24 t0.12 -1.24 l10.1 0 q0.12 0.6 0.12 1.24 t-0.12 1.24 l-3.58 0 l0 11.9 l-0.72 0.06 q-0.36 0.04 -0.7 0.04 t-0.73 -0.02 t-0.79 -0.08 l0 -11.9 z M45.660000000000004 5.619999999999999 q0.74 -0.12 1.46 -0.12 t1.48 0.12 l0 5.64 l4.82 0 l0 -5.64 q0.74 -0.12 1.46 -0.12 t1.48 0.12 l0 14.38 q-0.76 0.12 -1.48 0.12 t-1.46 -0.12 l0 -6.22 l-4.82 0 l0 6.22 q-0.76 0.12 -1.48 0.12 t-1.46 -0.12 l0 -14.38 z M59.160000000000004 5.619999999999999 l8.16 0 q0.12 0.6 0.12 1.24 t-0.12 1.24 l-5.24 0 l0 3.12 l4.16 0 q0.12 0.64 0.12 1.26 t-0.12 1.24 l-4.16 0 l0 3.8 l5.38 0 q0.12 0.6 0.12 1.24 t-0.12 1.24 l-8.3 0 l0 -14.38 z M74.22000000000001 5.6 q0.64 -0.1 1.48 -0.16 t2.1 -0.06 q1.1 0 2.08 0.18 t1.71 0.61 t1.15 1.15 t0.42 1.8 q0 0.64 -0.19 1.19 t-0.51 0.96 t-0.72 0.68 t-0.82 0.33 q0.46 0.06 1.02 0.28 t1.04 0.65 t0.8 1.11 t0.32 1.64 q0 1.3 -0.49 2.13 t-1.32 1.31 t-1.92 0.66 t-2.29 0.18 q-0.92 0 -1.82 -0.05 t-2.04 -0.19 l0 -14.4 z M77.12000000000002 17.8 q0.28 0.04 0.65 0.06 t0.67 0.02 q0.42 0 0.88 -0.08 t0.86 -0.31 t0.66 -0.64 t0.26 -1.05 t-0.2 -1.05 t-0.57 -0.66 t-0.88 -0.35 t-1.13 -0.1 l-1.2 0 l0 4.16 z M78.00000000000001 11.44 q0.5 0 0.93 -0.09 t0.75 -0.32 t0.5 -0.62 t0.18 -0.98 t-0.21 -0.96 t-0.54 -0.58 t-0.74 -0.28 t-0.81 -0.07 q-0.56 0 -0.94 0.06 l0 3.84 l0.88 0 z M86.28000000000002 5.619999999999999 l8.16 0 q0.12 0.6 0.12 1.24 t-0.12 1.24 l-5.24 0 l0 3.12 l4.16 0 q0.12 0.64 0.12 1.26 t-0.12 1.24 l-4.16 0 l0 3.8 l5.38 0 q0.12 0.6 0.12 1.24 t-0.12 1.24 l-8.3 0 l0 -14.38 z M99.52000000000001 13.34 q-0.68 -0.26 -1.22 -0.57 t-0.92 -0.74 t-0.59 -1.03 t-0.21 -1.44 q0 -1.02 0.35 -1.8 t0.99 -1.31 t1.54 -0.8 t2.02 -0.27 q1.02 0 1.91 0.18 t1.87 0.52 q-0.12 1.16 -0.64 2.28 l-0.6 -0.24 q-0.32 -0.12 -0.67 -0.2 t-0.79 -0.13 t-1 -0.05 q-0.34 0 -0.69 0.06 t-0.63 0.22 t-0.46 0.47 t-0.18 0.81 q0 0.4 0.14 0.67 t0.38 0.46 t0.54 0.31 l0.6 0.26 l1.2 0.46 q0.76 0.3 1.38 0.62 t1.05 0.79 t0.67 1.14 t0.24 1.67 t-0.37 1.84 t-1.07 1.44 t-1.73 0.94 t-2.37 0.34 q-0.66 0 -1.18 -0.04 t-0.99 -0.13 t-0.93 -0.23 t-0.96 -0.34 q0.06 -0.58 0.22 -1.21 t0.38 -1.27 q0.84 0.34 1.58 0.51 t1.58 0.17 q1.26 0 1.98 -0.47 t0.72 -1.43 q0 -0.48 -0.17 -0.8 t-0.44 -0.54 t-0.61 -0.37 t-0.7 -0.29 z M110.70000000000002 8.1 l-3.58 0 q-0.12 -0.6 -0.12 -1.24 t0.12 -1.24 l10.1 0 q0.12 0.6 0.12 1.24 t-0.12 1.24 l-3.58 0 l0 11.9 l-0.72 0.06 q-0.36 0.04 -0.7 0.04 t-0.73 -0.02 t-0.79 -0.08 l0 -11.9 z">
</path>
</g>
<g transform="translate(0, 10) matrix(1.1999998474121287,0,0,1.1999998474121287,120.5870453088067,1.000006103514849)" fill="#111111">
<path d="M7.44 32.76 c0 -1.4 -0.2 -5.2 -0.16 -6 c0 -0.12 0.08 -0.28 0.12 -0.28 c0.08 0 0.24 0.08 0.28 0.12 c1.28 1.68 7.28 13.32 8 13.36 c0.2 0.04 0.4 0.04 0.6 0.04 c1.36 -0.08 2.56 0 3.92 0 c1.4 0 0.48 -1.36 0.24 -1.72 c-0.36 -0.52 -5.12 -9.04 -5.4 -9.56 c-0.8 -1.36 -1.48 -2.84 -2.28 -4.16 c-0.08 -0.16 -0.16 -0.4 -0.12 -0.56 c0.08 -0.48 0.2 -0.92 0.4 -1.36 c0.96 -1.88 1.96 -3.8 3.12 -5.6 c1.28 -2.04 2 -3.32 3.04 -5.16 c0.24 -0.44 0.4 -0.92 0.56 -1.44 c0.04 -0.2 -0.12 -0.4 -0.36 -0.4 c-0.76 -0.04 -3.52 0 -4.4 0 c-0.4 0 -0.8 0.08 -1 0.44 c-0.52 1 -5.88 10.8 -6.4 11.68 c-0.04 0.08 -0.16 0.12 -0.28 0.12 c0 0 -0.08 -0.12 -0.08 -0.2 c-0.04 -2.24 0.36 -9.56 0.28 -11.04 c-0.04 -0.88 -0.2 -0.96 -1.08 -1 c-0.96 -0.04 -2.28 -0.04 -3.24 -0.04 c-0.88 0 -0.96 0.48 -1.08 1.12 c-0.04 0.12 -0.04 3.88 -0.04 5.56 c0 2.44 -0.2 17.72 0.08 22.56 c0 0.48 0.12 0.76 0.52 0.76 c1.08 -0.08 2.68 0 3.76 0 c0.76 0 0.88 -0.08 0.88 -1.36 c0 -1.72 0.16 -3.28 0.16 -5.4 c0 -0.16 -0.04 -0.32 -0.04 -0.48 z"></path></g><g id="SvgjsG3310" featurekey="inlineSymbolFeature-0" transform="matrix(0.45,0,0,0.45,146.5,8.5)" fill="#111111">
<path transform="translate(0, 20)" xmlns="http://www.w3.org/2000/svg" d="M50,10L10,90h80L50,10z M50,24.909L72.546,70H42.36l3.333-6.667h16.064L50,39.814L31.575,76.667h44.304l3.333,6.666H20.788  L50,24.909z">
</path></g>
<g   id="SvgjsG3311" featurekey="nameRightFeature-0" transform="translate(0, 10) matrix(1.1810088174098605,0,0,1.1810088174098605,189.64331510357812,1.6412745335813188)" fill="#111111">
<path  d="M2 13.920000000000002 c-0.04 2.48 0.2 20.6 0.16 21.92 c0 1.24 0 2.48 0.04 3.72 c0 0.2 0.12 0.4 0.32 0.4 c2.8 0.12 5.56 -0.12 8.36 -0.08 c0.92 0.04 1.84 0 2.72 0 c0.88 -0.04 0.96 -0.4 0.92 -1.12 c-0.04 -1.12 -0.04 -2.12 -0.04 -3.2 c-0.04 -0.56 -0.36 -0.76 -0.84 -0.76 c-1.64 0.04 -3.28 -0.04 -4.92 0.04 c-0.28 0.04 -0.56 0.04 -0.84 0.04 c-0.48 -0.04 -0.6 -0.16 -0.64 -0.68 l0 -0.6 c-0.12 -3.32 0.12 -6.76 0.12 -10.08 c-0.04 -2.8 0 -5.32 -0.04 -7.8 c0 -1.08 0 -2.16 -0.04 -3.2 c-0.04 -0.64 0 -1.32 -0.16 -1.96 c-0.08 -0.24 -0.2 -0.56 -0.48 -0.56 l-3.76 0 c-0.64 0 -0.84 0.44 -0.88 1.08 l0 2.84 z M18.52 16.56 c0 4.04 0.04 8.12 0.12 12.12 c0.04 2.44 0 5.2 1.16 7.44 c1.48 2.88 4.76 4.16 7.92 3.96 c2.16 -0.16 4.16 -0.72 5.72 -2.32 c2.64 -2.84 2.12 -7.28 2.16 -10.92 c0.08 -5.24 0.2 -10.12 0.2 -15.4 c0 -0.88 -0.28 -1.36 -1.16 -1.4 c-1.08 -0.04 -2.16 0 -3.24 0.08 c-0.44 0 -0.8 0.4 -0.8 0.88 c0.04 3.84 0.12 7.72 0.08 11.6 c-0.04 3.32 0.4 7 -0.84 10.16 c-0.48 1.16 -1.56 2.04 -2.84 2.04 c-3.2 -0.08 -3.08 -3.88 -3.2 -6.12 c-0.24 -4.88 0.12 -9.88 0.24 -14.76 c0 -0.92 0 -1.84 0.04 -2.76 c0.04 -0.48 0.12 -1.08 -0.52 -1.12 l-0.72 0 c-1 0.08 -2 -0.04 -3 0 c-0.96 0.08 -1.28 0.36 -1.28 1.32 c0 1.72 -0.04 3.48 -0.04 5.2 z M57.67999999999999 33.28 c0.04 1.92 0 3.88 -0.12 5.8 c0 0.16 -0.12 0.32 -0.24 0.4 c-0.16 0.12 -0.36 0.2 -0.56 0.2 c-2.48 0.4 -5.48 0.6 -7.88 -0.2 c-5.4 -1.84 -9.08 -7.88 -9.08 -14.8 c0 -7.48 5.36 -14.76 13.16 -15.04 c1.04 -0.04 4.6 -0.2 4.48 1.56 c-0.08 1.28 0.04 2.32 0 3.64 c0 0.24 -0.16 0.4 -0.4 0.36 c-2.28 -0.28 -4.88 -1 -7.08 0.04 c-1.84 0.88 -3.12 2.76 -3.84 4.6 c-1.28 3.04 -1 6.56 -0.12 9.68 c0.68 2.48 2.16 5.4 5.12 5.48 c0.16 0.04 1.68 0.12 1.68 -0.04 l-0.12 -5.12 c-0.04 -0.24 -0.04 -0.48 -0.08 -0.72 s-0.2 -0.32 -0.44 -0.36 c-0.64 0 -0.64 -0.04 -1.28 -0.04 c-1.48 0 -1.16 -1 -1.2 -1.32 c-0.04 -0.6 0 -1.16 -0.04 -1.76 c-0.04 -0.56 0.12 -1 0.68 -1.08 l0.48 0 c2.08 -0.12 4.2 0.04 6.4 0.04 c0.32 0 0.48 0.4 0.48 0.76 c0.04 0.4 0.04 0.68 0.04 1.08 c0.12 1.96 -0.12 3.96 -0.08 5.92 c0.04 0.32 0.04 0.6 0.04 0.92 z M61.8 31.8 l-0.04 0 c0 1 -0.04 2.04 0 3.08 c0.04 1.28 0.12 2.56 0.2 3.84 c0 0.44 0.12 0.56 0.52 0.64 c0.84 0.2 1.64 0.24 2.48 0.24 c2.16 -0.08 4.32 0.08 6.48 0 c0.88 -0.04 1.28 0.04 2.16 -0.12 c0.8 -0.16 1.08 -0.6 1.08 -1.8 c-0.08 -0.76 -0.04 -1.08 -0.04 -2 c0 -1.32 -0.92 -1.76 -1.72 -1.72 c-0.56 0.04 -3.24 -0.04 -4.32 -0.04 c-1.8 0.04 -1.52 0.28 -1.52 -1.6 c0 -1.52 0.04 -3.48 0.04 -5.04 c0 -0.84 0.08 -1.12 0.88 -1.12 l5 0 c0.8 0.12 1.36 -0.44 1.36 -1.28 s0.08 -0.88 0.08 -1.72 l-0.12 -1.2 c-0.08 -0.68 -0.32 -0.92 -1 -0.92 c-0.44 0 -0.88 0.04 -1.32 0.08 c-1.72 0.12 -2.52 -0.12 -4.2 0 c-0.56 0 -0.64 -0.08 -0.68 -0.6 c-0.16 -1.56 0 -3.28 0.16 -4.84 c0.04 -0.64 0.2 -0.76 0.8 -0.8 l5.64 -0.04 c0.76 -0.08 1 -0.04 0.96 -0.8 c-0.08 -1.16 0.04 -2.36 -0.08 -3.52 c-0.08 -0.64 -0.28 -0.76 -1 -0.76 c-1.2 0.04 -1.48 0.04 -2.68 0.12 c-1.2 0.04 -6 0.04 -7.16 0.04 c-1.68 0 -1.8 -0.12 -1.84 1.92 c-0.08 1.6 -0.04 3.24 -0.04 4.88 c0 2.8 -0.16 12.84 -0.08 15.08 z M83.64 37 c0 -1.04 0 -7.6 0.04 -8.12 c0.04 -0.12 0.12 -0.36 0.28 -0.36 s0.24 0.08 0.28 0.2 c1.6 3.12 3 6.24 4.44 9.28 c0.2 0.44 0.64 1.72 0.76 1.84 c0.16 0.24 0.44 0.16 0.68 0.16 l4.4 0.04 c0.52 0 0.64 -0.32 0.52 -0.76 c-0.32 -1.2 -2.6 -5.44 -3.12 -6.48 c-0.36 -0.8 -2.76 -5.44 -2.84 -5.8 c-0.08 -0.16 0.52 -0.44 0.6 -0.56 c1.92 -1.72 3.64 -3.48 4 -6.16 c0.4 -2.64 -0.2 -5.52 -1.92 -7.64 c-1.32 -1.56 -3.04 -2.48 -5.08 -2.6 c-1.24 -0.08 -2.44 0.04 -3.68 0 c-1.08 -0.04 -1.84 -0.04 -3.2 -0.04 c-0.64 0 -1.04 0.36 -1.08 1.04 l0 0.48 c-0.08 3.08 0 6.16 0.04 9.2 c0 4.64 -0.08 16.88 -0.08 18.64 c0 0.52 0.08 0.64 0.56 0.64 c0.28 0 0.6 0.04 0.88 0.04 c1.12 0 1.8 -0.04 2.96 -0.04 c0.88 0 0.56 -1.44 0.56 -3 z M83.64 21.4 l0.04 -4.04 c0.04 -0.6 -0.16 -1.8 0.4 -2.24 c0.76 -0.56 2.32 0 3 0.48 c2 1.36 1.84 4.72 0.76 6.6 c-0.52 0.88 -1.4 1.4 -2.4 1.68 c-0.6 0.16 -1.72 0.36 -1.76 -0.6 c0 -0.64 -0.04 -1.88 -0.04 -1.88 z">
</path></g></svg>